<?xml version="1.0"?>
<svg xmlns="http://www.w3.org/2000/svg" id="_1-hygienic_mask" enable-background="new 0 0 64 64" height="512px" viewBox="0 0 64 64" width="512px" class=""><g><g><path d="m32 47c15 0 18-18 18-18s0-6-4-6c-10 0-7-4-14-4s-4 4-14 4c-4 0-4 6-4 6s3 18 18 18z" fill="#50c976" data-original="#50C976" class="active-path" style="fill:#C7EBFF" data-old_color="#50c976"/><path d="m46 23c-10 0-7-4-14-4v28c15 0 18-18 18-18s0-6-4-6z" fill="#00a14b" data-original="#00A14B" class="" style="fill:#429AE9" data-old_color="#00a14b"/><g fill="#f1f2f2"><path d="m42 31c-.107 0-.214-.017-.316-.051-.059-.02-5.895-1.949-9.684-1.949s-9.625 1.929-9.684 1.949c-.524.175-1.09-.109-1.265-.633s.109-1.09.633-1.265c.251-.083 6.201-2.051 10.316-2.051s10.065 1.968 10.316 2.051c.524.175.807.741.632 1.265-.136.409-.518.684-.948.684z" data-original="#F1F2F2" class=""/><path d="m42 36c-.107 0-.214-.017-.316-.051-.059-.02-5.895-1.949-9.684-1.949s-9.625 1.929-9.684 1.949c-.524.175-1.09-.109-1.265-.633s.109-1.09.633-1.265c.251-.083 6.201-2.051 10.316-2.051s10.065 1.968 10.316 2.051c.524.175.807.741.632 1.265-.136.409-.518.684-.948.684z" data-original="#F1F2F2" class=""/><path d="m41 41c-.127 0-.253-.024-.371-.071-2.76-1.085-5.67-1.736-8.629-1.929-2.959.193-5.869.844-8.629 1.929-.513.204-1.095-.047-1.299-.561-.203-.512.045-1.091.556-1.297 2.994-1.185 6.158-1.884 9.372-2.071 3.214.187 6.378.886 9.372 2.071.513.206.762.788.556 1.301-.152.379-.52.628-.928.628z" data-original="#F1F2F2" class=""/></g><path d="m57 16c-4.539 0-7.495 4.799-8.52 6.778-.721-.521-1.591-.794-2.48-.778-5.113 0-6.523-1.051-7.887-2.068-1.711-1.41-3.902-2.103-6.113-1.932-2.211-.171-4.402.522-6.113 1.932-1.364 1.017-2.774 2.068-7.887 2.068-.889-.016-1.759.257-2.48.778-1.025-1.979-3.981-6.778-8.52-6.778-4.449 0-7 4.009-7 11 0 3.985 2.975 14 10 14h8.232c5.545 7.604 16.204 9.273 23.807 3.728 1.429-1.042 2.687-2.3 3.728-3.728h8.233c7.025 0 10-10.015 10-14 0-6.991-2.551-11-7-11zm-47 23c-5.278 0-8-8.411-8-12 0-2.706.487-9 5-9 4.276 0 7.148 6.366 7.148 6.366-.755 1.428-1.149 3.019-1.148 4.634.705 3.53 2.01 6.912 3.86 10zm22 7c-5.822 0-10.442-2.845-13.733-8.456-1.54-2.683-2.642-5.594-3.265-8.624.02-.647.258-4.92 2.998-4.92 5.776 0 7.533-1.309 9.083-2.464 1.367-1.15 3.138-1.704 4.917-1.536 1.779-.168 3.55.386 4.917 1.536 1.55 1.155 3.307 2.464 9.083 2.464 2.74 0 2.978 4.273 2.998 4.92-.247 1.307-3.519 17.08-16.998 17.08zm22-7h-6.86c1.85-3.088 3.155-6.47 3.86-10 .001-1.615-.393-3.206-1.148-4.634 0 0 2.873-6.366 7.148-6.366 4.513 0 5 6.294 5 9 0 3.589-2.722 12-8 12z" data-original="#000000" class="" style="fill:#000000" data-old_color="#000000"/><path d="m42.316 29.051c-.251-.083-6.201-2.051-10.316-2.051s-10.065 1.968-10.316 2.051c-.566.2-.807.783-.633 1.307.175.524.741.807 1.265.633.059-.02 5.896-1.949 9.684-1.949s9.625 1.929 9.684 1.949c.524.175 1.082-.111 1.265-.633.198-.564-.109-1.132-.633-1.307z" data-original="#000000" class="" style="fill:#000000" data-old_color="#000000"/><path d="m42.316 34.051c-.251-.083-6.201-2.051-10.316-2.051s-10.065 1.968-10.316 2.051c-.566.2-.807.783-.633 1.307.175.524.741.807 1.265.633.059-.02 5.896-1.949 9.684-1.949s9.625 1.929 9.684 1.949c.524.175 1.082-.111 1.265-.633.198-.564-.109-1.132-.633-1.307z" data-original="#000000" class="" style="fill:#000000" data-old_color="#000000"/><path d="m41.372 39.071c-2.994-1.185-6.158-1.884-9.372-2.071-3.214.187-6.378.886-9.372 2.071-.512.206-.76.789-.554 1.301.206.511.785.759 1.297.556 2.76-1.084 5.67-1.735 8.629-1.928 2.959.193 5.869.844 8.629 1.929.513.204 1.095-.047 1.299-.561.202-.512-.046-1.091-.556-1.297z" data-original="#000000" class="" style="fill:#000000" data-old_color="#000000"/></g></g> </svg>
